<svg fill="none" height="16" viewBox="0 0 16 16" width="16" xmlns="http://www.w3.org/2000/svg" xmlns:xlink="http://www.w3.org/1999/xlink"><clipPath id="a"><path d="m0 0h16v16h-16z"/></clipPath><g clip-path="url(#a)" fill="#f4f4fd"><path d="m15.9843 4.70398c-.0375-.85014-.175-1.4346-.3719-1.94105-.2032-.53758-.5157-1.01888-.9252-1.41898-.4001-.406328-.8846-.722063-1.4159-.922054-.5094-.196937-1.0908-.3344155-1.941-.3718984-.8565-.04065739-1.1284-.05005864-3.30067-.05005864-2.1723 0-2.4442.00940125-3.29751.04688414-.85015.0374829-1.43461.1750829-1.94093.3718989-.53771.203165-1.019.515726-1.4191.925228-.406332.4001-.721945.88457-.922057 1.41593-.196937.5095-.334415 1.09079-.3718983 1.94093-.0406573.85649-.0500585 1.12839-.0500585 3.30069s.0094012 2.4442.0468841 3.2975c.0374827.8502.1750827 1.4346.3720207 1.9411.203164.5376.518777 1.0189.925109 1.419.4001.4063.88457.722 1.41592.922.5095.1969 1.09079.3344 1.94105.3719.8532.0376 1.12522.0469 3.29752.0469 2.17232 0 2.44422-.0093 3.29752-.0469.8501-.0375 1.4346-.175 1.9409-.3719 1.0753-.4157 1.9254-1.2659 2.3412-2.341.1968-.5095.3344-1.0909.3719-1.9411.0375-.8533.0469-1.1252.0469-3.2975s-.0032-2.4442-.0407-3.29752zm-1.4408 6.53252c-.0345.7814-.1657 1.2034-.2751 1.4847-.2689.697-.8221 1.2502-1.5191 1.5191-.2813.1094-.7063.2406-1.4847.2749-.8439.0376-1.097.0469-3.23179.0469-2.13482 0-2.39109-.0093-3.23196-.0469-.7814-.0343-1.20335-.1655-1.48466-.2749-.34687-.1282-.6626-.3314-.91888-.5971-.26568-.2594-.46884-.572-.59704-.9189-.1094-.2813-.24065-.7064-.27495-1.4846-.03761-.8439-.04689-1.0972-.04689-3.23197 0-2.13482.00928-2.39109.04689-3.23183.0343-.78141.16555-1.20336.27495-1.48467.1282-.34699.33136-.6626.60022-.919.25932-.26568.57188-.46884.91888-.59692.2813-.1094.70643-.24065 1.48466-.27508.84391-.03748 1.09714-.04688 3.23183-.04688 2.13794 0 2.39104.0094 3.23194.04688.7814.03443 1.2034.16568 1.4847.27508.3468.12808.6626.33124.9189.59692.2656.25945.4688.57201.597.919.1094.28131.2406.70632.2751 1.48467.0375.84391.0469 1.09701.0469 3.23183 0 2.13477-.0094 2.38487-.0469 3.22877z"/><path d="m8.02961 3.8913c-2.26912 0-4.11018 1.84093-4.11018 4.11017 0 2.26923 1.84106 4.11023 4.11018 4.11023 2.26929 0 4.11019-1.841 4.11019-4.11023 0-2.26924-1.8409-4.11017-4.11019-4.11017zm0 6.7763c-1.47209 0-2.66617-1.19392-2.66617-2.66613s1.19408-2.66617 2.66617-2.66617c1.47221 0 2.66619 1.19396 2.66619 2.66617s-1.19398 2.66613-2.66619 2.66613z"/><path d="m13.262 3.72883c0 .52989-.4297.95954-.9597.95954-.5299 0-.9595-.42965-.9595-.95954 0-.53001.4296-.95954.9595-.95954.53 0 .9597.42953.9597.95954z"/></g></svg>