<svg fill="none" height="24" viewBox="0 0 24 24" width="24" xmlns="http://www.w3.org/2000/svg"><g clip-rule="evenodd" fill="#2f2f37" fill-rule="evenodd"><path d="m3.59961 6.00078c0-.31826.12643-.62348.35147-.84853.22504-.22504.53027-.35147.84853-.35147h14.39999c.3183 0 .6235.12643.8485.35147.2251.22505.3515.53027.3515.84853s-.1264.62349-.3515.84853c-.225.22504-.5302.35147-.8485.35147h-14.39999c-.31826 0-.62349-.12643-.84853-.35147s-.35147-.53027-.35147-.84853z"/><path d="m3.59961 12.0008c0-.3183.12643-.6235.35147-.8485.22504-.2251.53027-.3515.84853-.3515h14.39999c.3183 0 .6235.1264.8485.3515.2251.225.3515.5302.3515.8485 0 .3182-.1264.6235-.3515.8485-.225.2251-.5302.3515-.8485.3515h-14.39999c-.31826 0-.62349-.1264-.84853-.3515-.22504-.225-.35147-.5303-.35147-.8485z"/><path d="m3.59961 18.0008c0-.3183.12643-.6235.35147-.8485.22504-.2251.53027-.3515.84853-.3515h14.39999c.3183 0 .6235.1264.8485.3515.2251.225.3515.5302.3515.8485 0 .3182-.1264.6235-.3515.8485-.225.2251-.5302.3515-.8485.3515h-14.39999c-.31826 0-.62349-.1264-.84853-.3515-.22504-.225-.35147-.5303-.35147-.8485z"/></g></svg>